<?xml version="1.0" ?><svg id="Layer_1" style="enable-background:new 0 0 128 128;" version="1.1" viewBox="0 0 128 128" xml:space="preserve" xmlns="http://www.w3.org/2000/svg" xmlns:xlink="http://www.w3.org/1999/xlink"><style type="text/css">
	.st0{fill:none;}
	.st1{fill:#5277A3;}
	.st2{fill:#1AC6BD;}
</style><g><path class="st0" d="M95.212,90.446h-1.597h-1.527h-5.95v7.586h0.406h6.501h2.167c2.05,0,3.718-1.702,3.718-3.793   S97.262,90.446,95.212,90.446z"/><ellipse class="st1" cx="38.724" cy="55.112" rx="2.383" ry="2.413"/><ellipse class="st1" cx="38.724" cy="70.888" rx="2.383" ry="2.413"/><ellipse class="st1" cx="38.724" cy="86.663" rx="2.383" ry="2.413"/><path class="st1" d="M99.196,87.577c0.841-1.157,1.345-2.58,1.345-4.122c0-3.36-2.361-6.173-5.496-6.84v-2.408c0-1.104-0.896-2-2-2   s-2,0.896-2,2v2.258h-2.501v-2.258c0-1.104-0.896-2-2-2s-2,0.896-2,2v2.258H82c-1.104,0-2,0.896-2,2s0.896,2,2,2h4.543h6.501h0.57   c1.614,0,2.926,1.341,2.926,2.99s-1.313,2.99-2.926,2.99h-1.527h-7.95c-1.104,0-2,0.896-2,2v9.589   c-1.09,0.016-1.97,0.903-1.97,1.997c0,1.104,0.896,2,2,2h2.376v2.258c0,1.104,0.896,2,2,2s2-0.896,2-2v-2.258h2.501v2.258   c0,1.104,0.896,2,2,2s2-0.896,2-2v-2.258h0.167c4.256,0,7.718-3.496,7.718-7.793C102.93,91.415,101.43,88.944,99.196,87.577z    M95.212,98.032h-2.167h-6.501h-0.406v-7.586h5.95h1.527h1.597c2.05,0,3.718,1.702,3.718,3.793S97.262,98.032,95.212,98.032z"/><path class="st2" d="M69.059,111.022c-1.104,0-2,0.896-2,2v3.923c0,1.685-1.372,3.055-3.059,3.055s-3.059-1.37-3.059-3.055V94.463   c0-0.002,0-0.003,0-0.005s0-0.003,0-0.005V78.687c0-0.002,0-0.003,0-0.005s0-0.003,0-0.005V47.175c0-0.008-0.002-0.014-0.002-0.022   c0-0.008,0.002-0.014,0.002-0.022c0-1.104-0.896-2-2-2H30.843c-1.104,0-2,0.896-2,2v7.782c0,1.104,0.896,2,2,2s2-0.896,2-2v-5.782   h24.098v11.776H30.843c-1.104,0-2,0.896-2,2v7.782c0,1.104,0.896,2,2,2s2-0.896,2-2v-5.782h24.098v11.776H30.843   c-1.104,0-2,0.896-2,2v7.782c0,1.104,0.896,2,2,2s2-0.896,2-2v-5.782h24.098v11.776H30.843c-1.104,0-2,0.896-2,2s0.896,2,2,2   h26.098v20.487c0,3.89,3.167,7.055,7.059,7.055s7.059-3.165,7.059-7.055v-3.923C71.059,111.917,70.163,111.022,69.059,111.022z"/><path class="st2" d="M89.808,59.756c1.104,0,2-0.896,2-2V47.131c0-1.104-0.896-2-2-2h-12.75c-1.104,0-2,0.896-2,2s0.896,2,2,2   h10.75v8.625C87.808,58.861,88.704,59.756,89.808,59.756z"/><path class="st2" d="M122.916,24.125c-16.23-8.357-33.668-13.081-51.857-14.075V6c0-1.104-0.896-2-2-2H58.941c-1.104,0-2,0.896-2,2   v4.05c-18.188,0.995-35.626,5.719-51.857,14.076c-0.885,0.456-1.301,1.494-0.974,2.435c0.327,0.941,1.296,1.497,2.273,1.307   c6.664-1.305,13.438-2.293,20.133-2.94c6.755-0.652,13.597-0.983,20.335-0.983c3.243,0,5.881,2.642,5.881,5.89v9.238   c0,1.104,0.896,2,2,2h12.326v24.401c0,1.104,0.896,2,2,2s2-0.896,2-2V41.071h2.208c1.104,0,2-0.896,2-2v-9.238   c0-1.576,0.611-3.056,1.722-4.168c1.109-1.11,2.586-1.722,4.159-1.722c6.738,0,13.58,0.331,20.335,0.983   c6.695,0.646,13.469,1.635,20.133,2.94c0.98,0.19,1.947-0.366,2.273-1.307C124.216,25.62,123.801,24.582,122.916,24.125z M60.941,8   h6.117v1.883C66.041,9.859,65.021,9.847,64,9.847s-2.041,0.012-3.059,0.036V8z M101.868,20.945   c-6.883-0.665-13.854-1.002-20.72-1.002c-2.15,0-4.189,0.692-5.881,1.952V20.1c0-1.104-0.896-2-2-2s-2,0.896-2,2v9.734v7.238   H56.733v-7.238V20.1c0-1.104-0.896-2-2-2s-2,0.896-2,2v1.805c-1.646-1.226-3.677-1.961-5.881-1.961   c-6.866,0-13.837,0.337-20.72,1.002c-1.738,0.168-3.481,0.358-5.226,0.571c12.188-4.504,24.954-7.044,38.113-7.572   c1.652-0.065,3.316-0.097,4.98-0.097c1.664,0,3.327,0.032,4.979,0.097c13.161,0.527,25.927,3.067,38.115,7.572   C105.349,21.304,103.605,21.113,101.868,20.945z"/><path class="st1" d="M89.686,63.75c-14.044,0-25.471,11.438-25.471,25.498s11.426,25.498,25.471,25.498   s25.471-11.438,25.471-25.498S103.73,63.75,89.686,63.75z M89.686,110.747c-11.839,0-21.471-9.644-21.471-21.498   S77.847,67.75,89.686,67.75s21.471,9.644,21.471,21.498S101.525,110.747,89.686,110.747z"/></g></svg>